<mxfile host="app.diagrams.net" modified="2021-09-16T18:01:44.586Z" agent="5.0 (Windows NT 10.0; Win64; x64) AppleWebKit/537.36 (KHTML, like Gecko) Chrome/93.0.4577.82 Safari/537.36" etag="4LpnEsD8Er-y8PGbd_wu" version="15.2.7" type="github">
  <diagram id="SiCBYRlz1QdPVOhYgaYO" name="Page-1">
    <mxGraphModel dx="782" dy="468" grid="1" gridSize="10" guides="1" tooltips="1" connect="1" arrows="1" fold="1" page="1" pageScale="1" pageWidth="850" pageHeight="1100" math="0" shadow="0">
      <root>
        <mxCell id="0" />
        <mxCell id="1" parent="0" />
        <mxCell id="XmuW-lEJRTjj13B01Bnz-1" value="" style="shape=table;startSize=0;container=1;collapsible=0;childLayout=tableLayout;fillColor=#33FF33;" vertex="1" parent="1">
          <mxGeometry x="80" y="340" width="330" height="30" as="geometry" />
        </mxCell>
        <mxCell id="XmuW-lEJRTjj13B01Bnz-2" value="" style="shape=partialRectangle;collapsible=0;dropTarget=0;pointerEvents=0;fillColor=none;top=0;left=0;bottom=0;right=0;points=[[0,0.5],[1,0.5]];portConstraint=eastwest;" vertex="1" parent="XmuW-lEJRTjj13B01Bnz-1">
          <mxGeometry width="330" height="30" as="geometry" />
        </mxCell>
        <mxCell id="XmuW-lEJRTjj13B01Bnz-3" value="" style="shape=partialRectangle;html=1;whiteSpace=wrap;connectable=0;overflow=hidden;fillColor=none;top=0;left=0;bottom=0;right=0;pointerEvents=1;" vertex="1" parent="XmuW-lEJRTjj13B01Bnz-2">
          <mxGeometry width="33" height="30" as="geometry" />
        </mxCell>
        <mxCell id="XmuW-lEJRTjj13B01Bnz-4" value="" style="shape=partialRectangle;html=1;whiteSpace=wrap;connectable=0;overflow=hidden;fillColor=none;top=0;left=0;bottom=0;right=0;pointerEvents=1;" vertex="1" parent="XmuW-lEJRTjj13B01Bnz-2">
          <mxGeometry x="33" width="33" height="30" as="geometry" />
        </mxCell>
        <mxCell id="XmuW-lEJRTjj13B01Bnz-5" value="" style="shape=partialRectangle;html=1;whiteSpace=wrap;connectable=0;overflow=hidden;fillColor=none;top=0;left=0;bottom=0;right=0;pointerEvents=1;" vertex="1" parent="XmuW-lEJRTjj13B01Bnz-2">
          <mxGeometry x="66" width="33" height="30" as="geometry" />
        </mxCell>
        <mxCell id="XmuW-lEJRTjj13B01Bnz-6" value="" style="shape=partialRectangle;html=1;whiteSpace=wrap;connectable=0;overflow=hidden;fillColor=none;top=0;left=0;bottom=0;right=0;pointerEvents=1;" vertex="1" parent="XmuW-lEJRTjj13B01Bnz-2">
          <mxGeometry x="99" width="33" height="30" as="geometry" />
        </mxCell>
        <mxCell id="XmuW-lEJRTjj13B01Bnz-7" value="" style="shape=partialRectangle;html=1;whiteSpace=wrap;connectable=0;overflow=hidden;fillColor=none;top=0;left=0;bottom=0;right=0;pointerEvents=1;" vertex="1" parent="XmuW-lEJRTjj13B01Bnz-2">
          <mxGeometry x="132" width="33" height="30" as="geometry" />
        </mxCell>
        <mxCell id="XmuW-lEJRTjj13B01Bnz-8" value="" style="shape=partialRectangle;html=1;whiteSpace=wrap;connectable=0;overflow=hidden;fillColor=none;top=0;left=0;bottom=0;right=0;pointerEvents=1;" vertex="1" parent="XmuW-lEJRTjj13B01Bnz-2">
          <mxGeometry x="165" width="33" height="30" as="geometry" />
        </mxCell>
        <mxCell id="XmuW-lEJRTjj13B01Bnz-9" value="" style="shape=partialRectangle;html=1;whiteSpace=wrap;connectable=0;overflow=hidden;fillColor=none;top=0;left=0;bottom=0;right=0;pointerEvents=1;" vertex="1" parent="XmuW-lEJRTjj13B01Bnz-2">
          <mxGeometry x="198" width="33" height="30" as="geometry" />
        </mxCell>
        <mxCell id="XmuW-lEJRTjj13B01Bnz-10" value="" style="shape=partialRectangle;html=1;whiteSpace=wrap;connectable=0;overflow=hidden;fillColor=none;top=0;left=0;bottom=0;right=0;pointerEvents=1;" vertex="1" parent="XmuW-lEJRTjj13B01Bnz-2">
          <mxGeometry x="231" width="33" height="30" as="geometry" />
        </mxCell>
        <mxCell id="XmuW-lEJRTjj13B01Bnz-11" value="" style="shape=partialRectangle;html=1;whiteSpace=wrap;connectable=0;overflow=hidden;fillColor=none;top=0;left=0;bottom=0;right=0;pointerEvents=1;" vertex="1" parent="XmuW-lEJRTjj13B01Bnz-2">
          <mxGeometry x="264" width="33" height="30" as="geometry" />
        </mxCell>
        <mxCell id="XmuW-lEJRTjj13B01Bnz-12" value="" style="shape=partialRectangle;html=1;whiteSpace=wrap;connectable=0;overflow=hidden;fillColor=none;top=0;left=0;bottom=0;right=0;pointerEvents=1;" vertex="1" parent="XmuW-lEJRTjj13B01Bnz-2">
          <mxGeometry x="297" width="33" height="30" as="geometry" />
        </mxCell>
        <mxCell id="XmuW-lEJRTjj13B01Bnz-193" value="" style="shape=table;startSize=0;container=1;collapsible=0;childLayout=tableLayout;fillColor=#FF33FF;" vertex="1" parent="1">
          <mxGeometry x="500" y="140" width="30" height="430" as="geometry" />
        </mxCell>
        <mxCell id="XmuW-lEJRTjj13B01Bnz-194" value="" style="shape=partialRectangle;collapsible=0;dropTarget=0;pointerEvents=0;fillColor=none;top=0;left=0;bottom=0;right=0;points=[[0,0.5],[1,0.5]];portConstraint=eastwest;" vertex="1" parent="XmuW-lEJRTjj13B01Bnz-193">
          <mxGeometry width="30" height="22" as="geometry" />
        </mxCell>
        <mxCell id="XmuW-lEJRTjj13B01Bnz-195" value="" style="shape=partialRectangle;html=1;whiteSpace=wrap;connectable=0;overflow=hidden;fillColor=none;top=0;left=0;bottom=0;right=0;pointerEvents=1;" vertex="1" parent="XmuW-lEJRTjj13B01Bnz-194">
          <mxGeometry width="30" height="22" as="geometry" />
        </mxCell>
        <mxCell id="XmuW-lEJRTjj13B01Bnz-196" value="" style="shape=partialRectangle;collapsible=0;dropTarget=0;pointerEvents=0;fillColor=none;top=0;left=0;bottom=0;right=0;points=[[0,0.5],[1,0.5]];portConstraint=eastwest;" vertex="1" parent="XmuW-lEJRTjj13B01Bnz-193">
          <mxGeometry y="22" width="30" height="21" as="geometry" />
        </mxCell>
        <mxCell id="XmuW-lEJRTjj13B01Bnz-197" value="" style="shape=partialRectangle;html=1;whiteSpace=wrap;connectable=0;overflow=hidden;fillColor=none;top=0;left=0;bottom=0;right=0;pointerEvents=1;" vertex="1" parent="XmuW-lEJRTjj13B01Bnz-196">
          <mxGeometry width="30" height="21" as="geometry" />
        </mxCell>
        <mxCell id="XmuW-lEJRTjj13B01Bnz-198" value="" style="shape=partialRectangle;collapsible=0;dropTarget=0;pointerEvents=0;fillColor=none;top=0;left=0;bottom=0;right=0;points=[[0,0.5],[1,0.5]];portConstraint=eastwest;" vertex="1" parent="XmuW-lEJRTjj13B01Bnz-193">
          <mxGeometry y="43" width="30" height="22" as="geometry" />
        </mxCell>
        <mxCell id="XmuW-lEJRTjj13B01Bnz-199" value="" style="shape=partialRectangle;html=1;whiteSpace=wrap;connectable=0;overflow=hidden;fillColor=none;top=0;left=0;bottom=0;right=0;pointerEvents=1;" vertex="1" parent="XmuW-lEJRTjj13B01Bnz-198">
          <mxGeometry width="30" height="22" as="geometry" />
        </mxCell>
        <mxCell id="XmuW-lEJRTjj13B01Bnz-200" value="" style="shape=partialRectangle;collapsible=0;dropTarget=0;pointerEvents=0;fillColor=none;top=0;left=0;bottom=0;right=0;points=[[0,0.5],[1,0.5]];portConstraint=eastwest;" vertex="1" parent="XmuW-lEJRTjj13B01Bnz-193">
          <mxGeometry y="65" width="30" height="21" as="geometry" />
        </mxCell>
        <mxCell id="XmuW-lEJRTjj13B01Bnz-201" value="" style="shape=partialRectangle;html=1;whiteSpace=wrap;connectable=0;overflow=hidden;fillColor=none;top=0;left=0;bottom=0;right=0;pointerEvents=1;" vertex="1" parent="XmuW-lEJRTjj13B01Bnz-200">
          <mxGeometry width="30" height="21" as="geometry" />
        </mxCell>
        <mxCell id="XmuW-lEJRTjj13B01Bnz-202" value="" style="shape=partialRectangle;collapsible=0;dropTarget=0;pointerEvents=0;fillColor=none;top=0;left=0;bottom=0;right=0;points=[[0,0.5],[1,0.5]];portConstraint=eastwest;" vertex="1" parent="XmuW-lEJRTjj13B01Bnz-193">
          <mxGeometry y="86" width="30" height="22" as="geometry" />
        </mxCell>
        <mxCell id="XmuW-lEJRTjj13B01Bnz-203" value="" style="shape=partialRectangle;html=1;whiteSpace=wrap;connectable=0;overflow=hidden;fillColor=none;top=0;left=0;bottom=0;right=0;pointerEvents=1;" vertex="1" parent="XmuW-lEJRTjj13B01Bnz-202">
          <mxGeometry width="30" height="22" as="geometry" />
        </mxCell>
        <mxCell id="XmuW-lEJRTjj13B01Bnz-204" value="" style="shape=partialRectangle;collapsible=0;dropTarget=0;pointerEvents=0;fillColor=none;top=0;left=0;bottom=0;right=0;points=[[0,0.5],[1,0.5]];portConstraint=eastwest;" vertex="1" parent="XmuW-lEJRTjj13B01Bnz-193">
          <mxGeometry y="108" width="30" height="21" as="geometry" />
        </mxCell>
        <mxCell id="XmuW-lEJRTjj13B01Bnz-205" value="" style="shape=partialRectangle;html=1;whiteSpace=wrap;connectable=0;overflow=hidden;fillColor=none;top=0;left=0;bottom=0;right=0;pointerEvents=1;" vertex="1" parent="XmuW-lEJRTjj13B01Bnz-204">
          <mxGeometry width="30" height="21" as="geometry" />
        </mxCell>
        <mxCell id="XmuW-lEJRTjj13B01Bnz-206" value="" style="shape=partialRectangle;collapsible=0;dropTarget=0;pointerEvents=0;fillColor=none;top=0;left=0;bottom=0;right=0;points=[[0,0.5],[1,0.5]];portConstraint=eastwest;" vertex="1" parent="XmuW-lEJRTjj13B01Bnz-193">
          <mxGeometry y="129" width="30" height="22" as="geometry" />
        </mxCell>
        <mxCell id="XmuW-lEJRTjj13B01Bnz-207" value="" style="shape=partialRectangle;html=1;whiteSpace=wrap;connectable=0;overflow=hidden;fillColor=none;top=0;left=0;bottom=0;right=0;pointerEvents=1;" vertex="1" parent="XmuW-lEJRTjj13B01Bnz-206">
          <mxGeometry width="30" height="22" as="geometry" />
        </mxCell>
        <mxCell id="XmuW-lEJRTjj13B01Bnz-208" value="" style="shape=partialRectangle;collapsible=0;dropTarget=0;pointerEvents=0;fillColor=none;top=0;left=0;bottom=0;right=0;points=[[0,0.5],[1,0.5]];portConstraint=eastwest;" vertex="1" parent="XmuW-lEJRTjj13B01Bnz-193">
          <mxGeometry y="151" width="30" height="21" as="geometry" />
        </mxCell>
        <mxCell id="XmuW-lEJRTjj13B01Bnz-209" value="" style="shape=partialRectangle;html=1;whiteSpace=wrap;connectable=0;overflow=hidden;fillColor=none;top=0;left=0;bottom=0;right=0;pointerEvents=1;" vertex="1" parent="XmuW-lEJRTjj13B01Bnz-208">
          <mxGeometry width="30" height="21" as="geometry" />
        </mxCell>
        <mxCell id="XmuW-lEJRTjj13B01Bnz-210" value="" style="shape=partialRectangle;collapsible=0;dropTarget=0;pointerEvents=0;fillColor=none;top=0;left=0;bottom=0;right=0;points=[[0,0.5],[1,0.5]];portConstraint=eastwest;" vertex="1" parent="XmuW-lEJRTjj13B01Bnz-193">
          <mxGeometry y="172" width="30" height="22" as="geometry" />
        </mxCell>
        <mxCell id="XmuW-lEJRTjj13B01Bnz-211" value="" style="shape=partialRectangle;html=1;whiteSpace=wrap;connectable=0;overflow=hidden;fillColor=none;top=0;left=0;bottom=0;right=0;pointerEvents=1;" vertex="1" parent="XmuW-lEJRTjj13B01Bnz-210">
          <mxGeometry width="30" height="22" as="geometry" />
        </mxCell>
        <mxCell id="XmuW-lEJRTjj13B01Bnz-212" value="" style="shape=partialRectangle;collapsible=0;dropTarget=0;pointerEvents=0;fillColor=none;top=0;left=0;bottom=0;right=0;points=[[0,0.5],[1,0.5]];portConstraint=eastwest;" vertex="1" parent="XmuW-lEJRTjj13B01Bnz-193">
          <mxGeometry y="194" width="30" height="21" as="geometry" />
        </mxCell>
        <mxCell id="XmuW-lEJRTjj13B01Bnz-213" value="" style="shape=partialRectangle;html=1;whiteSpace=wrap;connectable=0;overflow=hidden;fillColor=none;top=0;left=0;bottom=0;right=0;pointerEvents=1;" vertex="1" parent="XmuW-lEJRTjj13B01Bnz-212">
          <mxGeometry width="30" height="21" as="geometry" />
        </mxCell>
        <mxCell id="XmuW-lEJRTjj13B01Bnz-214" value="" style="shape=partialRectangle;collapsible=0;dropTarget=0;pointerEvents=0;fillColor=none;top=0;left=0;bottom=0;right=0;points=[[0,0.5],[1,0.5]];portConstraint=eastwest;" vertex="1" parent="XmuW-lEJRTjj13B01Bnz-193">
          <mxGeometry y="215" width="30" height="22" as="geometry" />
        </mxCell>
        <mxCell id="XmuW-lEJRTjj13B01Bnz-215" value="" style="shape=partialRectangle;html=1;whiteSpace=wrap;connectable=0;overflow=hidden;fillColor=none;top=0;left=0;bottom=0;right=0;pointerEvents=1;" vertex="1" parent="XmuW-lEJRTjj13B01Bnz-214">
          <mxGeometry width="30" height="22" as="geometry" />
        </mxCell>
        <mxCell id="XmuW-lEJRTjj13B01Bnz-216" value="" style="shape=partialRectangle;collapsible=0;dropTarget=0;pointerEvents=0;fillColor=none;top=0;left=0;bottom=0;right=0;points=[[0,0.5],[1,0.5]];portConstraint=eastwest;" vertex="1" parent="XmuW-lEJRTjj13B01Bnz-193">
          <mxGeometry y="237" width="30" height="21" as="geometry" />
        </mxCell>
        <mxCell id="XmuW-lEJRTjj13B01Bnz-217" value="" style="shape=partialRectangle;html=1;whiteSpace=wrap;connectable=0;overflow=hidden;fillColor=none;top=0;left=0;bottom=0;right=0;pointerEvents=1;" vertex="1" parent="XmuW-lEJRTjj13B01Bnz-216">
          <mxGeometry width="30" height="21" as="geometry" />
        </mxCell>
        <mxCell id="XmuW-lEJRTjj13B01Bnz-218" value="" style="shape=partialRectangle;collapsible=0;dropTarget=0;pointerEvents=0;fillColor=none;top=0;left=0;bottom=0;right=0;points=[[0,0.5],[1,0.5]];portConstraint=eastwest;" vertex="1" parent="XmuW-lEJRTjj13B01Bnz-193">
          <mxGeometry y="258" width="30" height="22" as="geometry" />
        </mxCell>
        <mxCell id="XmuW-lEJRTjj13B01Bnz-219" value="" style="shape=partialRectangle;html=1;whiteSpace=wrap;connectable=0;overflow=hidden;fillColor=none;top=0;left=0;bottom=0;right=0;pointerEvents=1;" vertex="1" parent="XmuW-lEJRTjj13B01Bnz-218">
          <mxGeometry width="30" height="22" as="geometry" />
        </mxCell>
        <mxCell id="XmuW-lEJRTjj13B01Bnz-220" value="" style="shape=partialRectangle;collapsible=0;dropTarget=0;pointerEvents=0;fillColor=none;top=0;left=0;bottom=0;right=0;points=[[0,0.5],[1,0.5]];portConstraint=eastwest;" vertex="1" parent="XmuW-lEJRTjj13B01Bnz-193">
          <mxGeometry y="280" width="30" height="21" as="geometry" />
        </mxCell>
        <mxCell id="XmuW-lEJRTjj13B01Bnz-221" value="" style="shape=partialRectangle;html=1;whiteSpace=wrap;connectable=0;overflow=hidden;fillColor=none;top=0;left=0;bottom=0;right=0;pointerEvents=1;" vertex="1" parent="XmuW-lEJRTjj13B01Bnz-220">
          <mxGeometry width="30" height="21" as="geometry" />
        </mxCell>
        <mxCell id="XmuW-lEJRTjj13B01Bnz-222" value="" style="shape=partialRectangle;collapsible=0;dropTarget=0;pointerEvents=0;fillColor=none;top=0;left=0;bottom=0;right=0;points=[[0,0.5],[1,0.5]];portConstraint=eastwest;" vertex="1" parent="XmuW-lEJRTjj13B01Bnz-193">
          <mxGeometry y="301" width="30" height="22" as="geometry" />
        </mxCell>
        <mxCell id="XmuW-lEJRTjj13B01Bnz-223" value="" style="shape=partialRectangle;html=1;whiteSpace=wrap;connectable=0;overflow=hidden;fillColor=none;top=0;left=0;bottom=0;right=0;pointerEvents=1;" vertex="1" parent="XmuW-lEJRTjj13B01Bnz-222">
          <mxGeometry width="30" height="22" as="geometry" />
        </mxCell>
        <mxCell id="XmuW-lEJRTjj13B01Bnz-224" value="" style="shape=partialRectangle;collapsible=0;dropTarget=0;pointerEvents=0;fillColor=none;top=0;left=0;bottom=0;right=0;points=[[0,0.5],[1,0.5]];portConstraint=eastwest;" vertex="1" parent="XmuW-lEJRTjj13B01Bnz-193">
          <mxGeometry y="323" width="30" height="21" as="geometry" />
        </mxCell>
        <mxCell id="XmuW-lEJRTjj13B01Bnz-225" value="" style="shape=partialRectangle;html=1;whiteSpace=wrap;connectable=0;overflow=hidden;fillColor=none;top=0;left=0;bottom=0;right=0;pointerEvents=1;" vertex="1" parent="XmuW-lEJRTjj13B01Bnz-224">
          <mxGeometry width="30" height="21" as="geometry" />
        </mxCell>
        <mxCell id="XmuW-lEJRTjj13B01Bnz-226" value="" style="shape=partialRectangle;collapsible=0;dropTarget=0;pointerEvents=0;fillColor=none;top=0;left=0;bottom=0;right=0;points=[[0,0.5],[1,0.5]];portConstraint=eastwest;" vertex="1" parent="XmuW-lEJRTjj13B01Bnz-193">
          <mxGeometry y="344" width="30" height="22" as="geometry" />
        </mxCell>
        <mxCell id="XmuW-lEJRTjj13B01Bnz-227" value="" style="shape=partialRectangle;html=1;whiteSpace=wrap;connectable=0;overflow=hidden;fillColor=none;top=0;left=0;bottom=0;right=0;pointerEvents=1;" vertex="1" parent="XmuW-lEJRTjj13B01Bnz-226">
          <mxGeometry width="30" height="22" as="geometry" />
        </mxCell>
        <mxCell id="XmuW-lEJRTjj13B01Bnz-228" value="" style="shape=partialRectangle;collapsible=0;dropTarget=0;pointerEvents=0;fillColor=none;top=0;left=0;bottom=0;right=0;points=[[0,0.5],[1,0.5]];portConstraint=eastwest;" vertex="1" parent="XmuW-lEJRTjj13B01Bnz-193">
          <mxGeometry y="366" width="30" height="21" as="geometry" />
        </mxCell>
        <mxCell id="XmuW-lEJRTjj13B01Bnz-229" value="" style="shape=partialRectangle;html=1;whiteSpace=wrap;connectable=0;overflow=hidden;fillColor=none;top=0;left=0;bottom=0;right=0;pointerEvents=1;" vertex="1" parent="XmuW-lEJRTjj13B01Bnz-228">
          <mxGeometry width="30" height="21" as="geometry" />
        </mxCell>
        <mxCell id="XmuW-lEJRTjj13B01Bnz-230" value="" style="shape=partialRectangle;collapsible=0;dropTarget=0;pointerEvents=0;fillColor=none;top=0;left=0;bottom=0;right=0;points=[[0,0.5],[1,0.5]];portConstraint=eastwest;" vertex="1" parent="XmuW-lEJRTjj13B01Bnz-193">
          <mxGeometry y="387" width="30" height="22" as="geometry" />
        </mxCell>
        <mxCell id="XmuW-lEJRTjj13B01Bnz-231" value="" style="shape=partialRectangle;html=1;whiteSpace=wrap;connectable=0;overflow=hidden;fillColor=none;top=0;left=0;bottom=0;right=0;pointerEvents=1;" vertex="1" parent="XmuW-lEJRTjj13B01Bnz-230">
          <mxGeometry width="30" height="22" as="geometry" />
        </mxCell>
        <mxCell id="XmuW-lEJRTjj13B01Bnz-232" value="" style="shape=partialRectangle;collapsible=0;dropTarget=0;pointerEvents=0;fillColor=none;top=0;left=0;bottom=0;right=0;points=[[0,0.5],[1,0.5]];portConstraint=eastwest;" vertex="1" parent="XmuW-lEJRTjj13B01Bnz-193">
          <mxGeometry y="409" width="30" height="21" as="geometry" />
        </mxCell>
        <mxCell id="XmuW-lEJRTjj13B01Bnz-233" value="" style="shape=partialRectangle;html=1;whiteSpace=wrap;connectable=0;overflow=hidden;fillColor=none;top=0;left=0;bottom=0;right=0;pointerEvents=1;" vertex="1" parent="XmuW-lEJRTjj13B01Bnz-232">
          <mxGeometry width="30" height="21" as="geometry" />
        </mxCell>
        <mxCell id="XmuW-lEJRTjj13B01Bnz-234" value="" style="shape=table;startSize=0;container=1;collapsible=0;childLayout=tableLayout;fillColor=#33FF33;" vertex="1" parent="1">
          <mxGeometry x="90" y="350" width="330" height="30" as="geometry" />
        </mxCell>
        <mxCell id="XmuW-lEJRTjj13B01Bnz-235" value="" style="shape=partialRectangle;collapsible=0;dropTarget=0;pointerEvents=0;fillColor=none;top=0;left=0;bottom=0;right=0;points=[[0,0.5],[1,0.5]];portConstraint=eastwest;" vertex="1" parent="XmuW-lEJRTjj13B01Bnz-234">
          <mxGeometry width="330" height="30" as="geometry" />
        </mxCell>
        <mxCell id="XmuW-lEJRTjj13B01Bnz-236" value="" style="shape=partialRectangle;html=1;whiteSpace=wrap;connectable=0;overflow=hidden;fillColor=none;top=0;left=0;bottom=0;right=0;pointerEvents=1;" vertex="1" parent="XmuW-lEJRTjj13B01Bnz-235">
          <mxGeometry width="33" height="30" as="geometry" />
        </mxCell>
        <mxCell id="XmuW-lEJRTjj13B01Bnz-237" value="" style="shape=partialRectangle;html=1;whiteSpace=wrap;connectable=0;overflow=hidden;fillColor=none;top=0;left=0;bottom=0;right=0;pointerEvents=1;" vertex="1" parent="XmuW-lEJRTjj13B01Bnz-235">
          <mxGeometry x="33" width="33" height="30" as="geometry" />
        </mxCell>
        <mxCell id="XmuW-lEJRTjj13B01Bnz-238" value="" style="shape=partialRectangle;html=1;whiteSpace=wrap;connectable=0;overflow=hidden;fillColor=none;top=0;left=0;bottom=0;right=0;pointerEvents=1;" vertex="1" parent="XmuW-lEJRTjj13B01Bnz-235">
          <mxGeometry x="66" width="33" height="30" as="geometry" />
        </mxCell>
        <mxCell id="XmuW-lEJRTjj13B01Bnz-239" value="" style="shape=partialRectangle;html=1;whiteSpace=wrap;connectable=0;overflow=hidden;fillColor=none;top=0;left=0;bottom=0;right=0;pointerEvents=1;" vertex="1" parent="XmuW-lEJRTjj13B01Bnz-235">
          <mxGeometry x="99" width="33" height="30" as="geometry" />
        </mxCell>
        <mxCell id="XmuW-lEJRTjj13B01Bnz-240" value="" style="shape=partialRectangle;html=1;whiteSpace=wrap;connectable=0;overflow=hidden;fillColor=none;top=0;left=0;bottom=0;right=0;pointerEvents=1;" vertex="1" parent="XmuW-lEJRTjj13B01Bnz-235">
          <mxGeometry x="132" width="33" height="30" as="geometry" />
        </mxCell>
        <mxCell id="XmuW-lEJRTjj13B01Bnz-241" value="" style="shape=partialRectangle;html=1;whiteSpace=wrap;connectable=0;overflow=hidden;fillColor=none;top=0;left=0;bottom=0;right=0;pointerEvents=1;" vertex="1" parent="XmuW-lEJRTjj13B01Bnz-235">
          <mxGeometry x="165" width="33" height="30" as="geometry" />
        </mxCell>
        <mxCell id="XmuW-lEJRTjj13B01Bnz-242" value="" style="shape=partialRectangle;html=1;whiteSpace=wrap;connectable=0;overflow=hidden;fillColor=none;top=0;left=0;bottom=0;right=0;pointerEvents=1;" vertex="1" parent="XmuW-lEJRTjj13B01Bnz-235">
          <mxGeometry x="198" width="33" height="30" as="geometry" />
        </mxCell>
        <mxCell id="XmuW-lEJRTjj13B01Bnz-243" value="" style="shape=partialRectangle;html=1;whiteSpace=wrap;connectable=0;overflow=hidden;fillColor=none;top=0;left=0;bottom=0;right=0;pointerEvents=1;" vertex="1" parent="XmuW-lEJRTjj13B01Bnz-235">
          <mxGeometry x="231" width="33" height="30" as="geometry" />
        </mxCell>
        <mxCell id="XmuW-lEJRTjj13B01Bnz-244" value="" style="shape=partialRectangle;html=1;whiteSpace=wrap;connectable=0;overflow=hidden;fillColor=none;top=0;left=0;bottom=0;right=0;pointerEvents=1;" vertex="1" parent="XmuW-lEJRTjj13B01Bnz-235">
          <mxGeometry x="264" width="33" height="30" as="geometry" />
        </mxCell>
        <mxCell id="XmuW-lEJRTjj13B01Bnz-245" value="" style="shape=partialRectangle;html=1;whiteSpace=wrap;connectable=0;overflow=hidden;fillColor=none;top=0;left=0;bottom=0;right=0;pointerEvents=1;" vertex="1" parent="XmuW-lEJRTjj13B01Bnz-235">
          <mxGeometry x="297" width="33" height="30" as="geometry" />
        </mxCell>
        <mxCell id="XmuW-lEJRTjj13B01Bnz-246" value="&lt;font style=&quot;font-size: 24px&quot;&gt;10 x 2&lt;/font&gt;" style="text;html=1;resizable=0;autosize=1;align=center;verticalAlign=middle;points=[];fillColor=none;strokeColor=none;rounded=0;" vertex="1" parent="1">
          <mxGeometry x="215" y="400" width="80" height="20" as="geometry" />
        </mxCell>
        <mxCell id="XmuW-lEJRTjj13B01Bnz-247" value="&lt;font style=&quot;font-size: 24px&quot;&gt;20 x 1&lt;/font&gt;" style="text;html=1;resizable=0;autosize=1;align=center;verticalAlign=middle;points=[];fillColor=none;strokeColor=none;rounded=0;" vertex="1" parent="1">
          <mxGeometry x="480" y="580" width="80" height="20" as="geometry" />
        </mxCell>
      </root>
    </mxGraphModel>
  </diagram>
</mxfile>
